<svg xmlns="http://www.w3.org/2000/svg" xmlns:xlink="http://www.w3.org/1999/xlink" viewBox="0 0 841.91 200"><defs><style>.cls-1{opacity:0.5;}.cls-2{fill:url(#linear-gradient);}.cls-3{fill:url(#linear-gradient-2);}.cls-4{fill:url(#linear-gradient-3);}.cls-5{fill:url(#linear-gradient-4);}.cls-6{fill:url(#linear-gradient-5);}.cls-7{fill:url(#linear-gradient-6);}.cls-8{fill:url(#linear-gradient-7);}.cls-9{fill:url(#linear-gradient-8);}.cls-10{fill:#ef8227;}</style><linearGradient id="linear-gradient" x1="789.17" y1="10.54" x2="789.17" y2="195.41" gradientTransform="translate(-1.3 1.3)" gradientUnits="userSpaceOnUse"><stop offset="0" stop-color="#737373"/><stop offset="0.09" stop-color="#333"/><stop offset="0.29" stop-color="#737373"/><stop offset="0.54" stop-color="#737373"/><stop offset="0.8" stop-color="#737373"/><stop offset="0.86" stop-color="#575757"/><stop offset="0.94" stop-color="#333"/><stop offset="1" stop-color="#454545"/></linearGradient><linearGradient id="linear-gradient-2" x1="790.61" y1="9.09" x2="790.61" y2="193.96" gradientTransform="translate(-1.04 1.04)" xlink:href="#linear-gradient"/><linearGradient id="linear-gradient-3" x1="792.06" y1="7.64" x2="792.06" y2="192.52" gradientTransform="translate(-0.78 0.78)" xlink:href="#linear-gradient"/><linearGradient id="linear-gradient-4" x1="793.51" y1="6.19" x2="793.51" y2="191.07" gradientTransform="translate(-0.52 0.52)" xlink:href="#linear-gradient"/><linearGradient id="linear-gradient-5" x1="794.96" y1="4.74" x2="794.96" y2="189.62" gradientTransform="translate(-0.26 0.26)" xlink:href="#linear-gradient"/><linearGradient id="linear-gradient-6" x1="796.41" y1="3.29" x2="796.41" y2="188.17" gradientTransform="matrix(1, 0, 0, 1, 0, 0)" xlink:href="#linear-gradient"/><linearGradient id="linear-gradient-7" x1="859.2" y1="52.13" x2="730.6" y2="160.04" gradientTransform="matrix(1, 0, 0, 1, 0, 0)" xlink:href="#linear-gradient"/><linearGradient id="linear-gradient-8" x1="796.41" y1="188.17" x2="796.41" y2="3.29" gradientUnits="userSpaceOnUse"><stop offset="0" stop-color="#737373"/><stop offset="0.22" stop-color="#737373"/><stop offset="0.28" stop-color="#646464"/><stop offset="0.5" stop-color="#333"/><stop offset="0.76" stop-color="#737373"/><stop offset="1" stop-color="#737373"/></linearGradient></defs><g id="Layer_2" data-name="Layer 2"><g id="Layer_1-2" data-name="Layer 1"><g class="cls-1"><path class="cls-2" d="M826.47,200H745.66a3.29,3.29,0,0,1-3.29-3.29v-9a3.25,3.25,0,0,1,.54-1.81l50.78-77.19c5.34-8,9.37-14.36,12-18.91a77,77,0,0,0,6.48-15.15,61.4,61.4,0,0,0,2.67-18.53c0-9.87-2.18-17.61-6.5-23s-10.07-7.8-18-7.8c-11,0-18.21,2.95-22.19,9-4.22,6.44-6.43,16.06-6.57,28.59v2.9a3.29,3.29,0,0,1-3.29,3.3H746.56a3.29,3.29,0,0,1-3.29-3.3V62.17c0-17.87,3.75-31.38,11.16-40.16C762,13.07,773.91,8.54,789.9,8.54c14,0,25,4.45,32.42,13.24,7.33,8.62,11,20.77,11,36.1a66.8,66.8,0,0,1-6,28.25,244.09,244.09,0,0,1-17.28,30l-44.48,67.13h60.91a3.29,3.29,0,0,1,3.29,3.3v10.16A3.29,3.29,0,0,1,826.47,200ZM749,193.41h74.23v-3.57H759.43a3.29,3.29,0,0,1-2.75-5.11l47.85-72.24a235.27,235.27,0,0,0,16.81-29.13,60.18,60.18,0,0,0,5.44-25.48c0-13.72-3.19-24.43-9.48-31.84s-15.21-10.91-27.4-10.91c-14,0-24.2,3.74-30.44,11.13-6.37,7.56-9.6,19.64-9.6,35.91v.32H755c.19-13.68,2.77-24.37,7.64-31.81,5.22-7.95,14.54-12,27.7-12,9.89,0,17.67,3.45,23.12,10.26,5.27,6.59,7.94,15.71,7.94,27.12a67.79,67.79,0,0,1-3,20.52,83.59,83.59,0,0,1-7,16.44c-2.68,4.68-6.79,11.16-12.19,19.27L749,188.66Z"/><path class="cls-3" d="M828.17,198.29h-80.8a3.29,3.29,0,0,1-3.3-3.29v-9a3.29,3.29,0,0,1,.54-1.81L795.4,107c5.34-8,9.36-14.36,12-18.91a77.57,77.57,0,0,0,6.49-15.15,61.4,61.4,0,0,0,2.67-18.53c0-9.87-2.19-17.61-6.51-23s-10.07-7.79-18-7.79c-11,0-18.22,2.94-22.19,9-4.22,6.44-6.43,16.06-6.57,28.6v2.89a3.3,3.3,0,0,1-3.3,3.3H748.27a3.3,3.3,0,0,1-3.3-3.3V60.46c0-17.87,3.76-31.38,11.17-40.16,7.54-8.94,19.47-13.47,35.47-13.47,14,0,24.94,4.45,32.41,13.24,7.34,8.62,11.06,20.77,11.06,36.1A66.65,66.65,0,0,1,829,84.42a244.86,244.86,0,0,1-17.28,30l-44.47,67.13h60.9a3.29,3.29,0,0,1,3.3,3.29V195A3.29,3.29,0,0,1,828.17,198.29Zm-77.51-6.59h74.22v-3.57H761.14a3.29,3.29,0,0,1-2.75-5.11l47.85-72.24a236.56,236.56,0,0,0,16.81-29.13,60.18,60.18,0,0,0,5.44-25.48c0-13.72-3.19-24.43-9.48-31.83s-15.22-10.92-27.4-10.92c-14,0-24.21,3.74-30.44,11.13-6.38,7.56-9.61,19.64-9.61,35.91v.32h5.15c.2-13.68,2.77-24.37,7.65-31.81,5.21-7.95,14.53-12,27.7-12,9.88,0,17.66,3.45,23.11,10.26,5.27,6.59,8,15.71,8,27.12a68.1,68.1,0,0,1-3,20.52,84.54,84.54,0,0,1-7,16.44c-2.69,4.68-6.79,11.16-12.2,19.27L750.66,187Z"/><path class="cls-4" d="M829.89,196.59H749.08a3.3,3.3,0,0,1-3.3-3.3v-9a3.34,3.34,0,0,1,.54-1.81l50.79-77.2c5.34-8,9.36-14.35,12-18.9a78.1,78.1,0,0,0,6.49-15.15,61.47,61.47,0,0,0,2.67-18.54c0-9.87-2.19-17.61-6.5-23s-10.08-7.8-18-7.8c-11,0-18.22,2.95-22.19,9-4.22,6.44-6.43,16.06-6.57,28.59v2.9a3.29,3.29,0,0,1-3.3,3.29H750a3.29,3.29,0,0,1-3.3-3.29V58.76c0-17.88,3.76-31.39,11.17-40.16,7.54-8.94,19.47-13.47,35.47-13.47,14,0,24.95,4.45,32.42,13.23,7.33,8.63,11,20.78,11,36.11a66.83,66.83,0,0,1-6,28.25,243,243,0,0,1-17.29,30L769,179.84h60.91a3.29,3.29,0,0,1,3.29,3.3v10.15A3.29,3.29,0,0,1,829.89,196.59ZM752.37,190h74.22v-3.57H762.85a3.29,3.29,0,0,1-2.75-5.12L808,109.08a236.59,236.59,0,0,0,16.81-29.14,60.11,60.11,0,0,0,5.44-25.47c0-13.72-3.19-24.44-9.48-31.84s-15.21-10.92-27.4-10.92c-14,0-24.21,3.75-30.44,11.14-6.38,7.55-9.61,19.63-9.61,35.91v.31h5.16c.19-13.68,2.76-24.36,7.64-31.8,5.21-8,14.53-12,27.7-12,9.88,0,17.66,3.46,23.11,10.27,5.27,6.59,8,15.71,8,27.11a68.05,68.05,0,0,1-3,20.52,84,84,0,0,1-7.05,16.45c-2.69,4.67-6.79,11.15-12.2,19.26l-50.23,76.36Z"/><path class="cls-5" d="M831.59,194.88H750.78a3.29,3.29,0,0,1-3.29-3.3v-9a3.25,3.25,0,0,1,.54-1.81l50.78-77.19c5.35-8,9.37-14.36,12-18.91a77,77,0,0,0,6.48-15.15A61.42,61.42,0,0,0,820,51c0-9.87-2.19-17.6-6.51-23s-10.07-7.8-18-7.8c-11,0-18.22,2.95-22.2,9-4.22,6.44-6.43,16.06-6.57,28.59v2.9A3.29,3.29,0,0,1,763.42,64H751.68a3.29,3.29,0,0,1-3.29-3.29V57.05c0-17.87,3.76-31.39,11.16-40.16C767.09,8,779,3.42,795,3.42c14,0,25,4.45,32.42,13.24,7.34,8.62,11.06,20.77,11.06,36.1A66.65,66.65,0,0,1,832.44,81a244.09,244.09,0,0,1-17.28,30l-44.48,67.13h60.91a3.3,3.3,0,0,1,3.3,3.3v10.15A3.3,3.3,0,0,1,831.59,194.88Zm-77.51-6.59H828.3v-3.57H764.55a3.28,3.28,0,0,1-2.9-1.73,3.33,3.33,0,0,1,.15-3.38l47.86-72.24a235.76,235.76,0,0,0,16.8-29.13,60.19,60.19,0,0,0,5.45-25.48c0-13.72-3.19-24.44-9.49-31.84S807.21,10,795,10c-14,0-24.2,3.74-30.44,11.13-6.37,7.55-9.6,19.63-9.6,35.91v.32h5.15c.19-13.68,2.77-24.37,7.65-31.81,5.21-8,14.53-12,27.7-12,9.88,0,17.66,3.46,23.11,10.27,5.27,6.59,7.94,15.71,7.94,27.11a67.85,67.85,0,0,1-3,20.53,83.59,83.59,0,0,1-7,16.44c-2.68,4.67-6.79,11.15-12.19,19.26l-50.23,76.36Z"/><path class="cls-6" d="M833.3,193.17H752.49a3.29,3.29,0,0,1-3.29-3.29v-9a3.34,3.34,0,0,1,.54-1.81l50.79-77.19c5.34-8,9.36-14.36,12-18.91A77.57,77.57,0,0,0,819,67.78a61.4,61.4,0,0,0,2.67-18.53c0-9.87-2.19-17.61-6.51-23s-10.07-7.8-18-7.8c-11,0-18.22,2.95-22.2,9-4.22,6.44-6.42,16.06-6.57,28.59V59a3.29,3.29,0,0,1-3.29,3.3H753.39A3.29,3.29,0,0,1,750.1,59V55.34c0-17.87,3.76-31.38,11.16-40.16,7.54-8.94,19.48-13.47,35.48-13.47,14,0,24.94,4.45,32.41,13.24,7.34,8.62,11.06,20.77,11.06,36.1a66.65,66.65,0,0,1-6.06,28.25,244.09,244.09,0,0,1-17.28,30L772.4,176.42h60.9a3.3,3.3,0,0,1,3.3,3.3v10.16A3.29,3.29,0,0,1,833.3,193.17Zm-77.51-6.59H830V183H766.26a3.29,3.29,0,0,1-2.74-5.11l47.85-72.24a235,235,0,0,0,16.8-29.13,60.19,60.19,0,0,0,5.45-25.48c0-13.72-3.19-24.43-9.49-31.84S808.92,8.3,796.74,8.3c-14,0-24.21,3.74-30.44,11.13-6.38,7.56-9.61,19.64-9.61,35.91v.32h5.15c.2-13.68,2.77-24.37,7.65-31.81,5.21-8,14.53-12,27.7-12,9.88,0,17.66,3.45,23.11,10.26,5.27,6.59,8,15.71,8,27.12a68.1,68.1,0,0,1-3,20.52,84.2,84.2,0,0,1-7.06,16.44c-2.68,4.68-6.78,11.16-12.19,19.27l-50.23,76.35Z"/><path class="cls-7" d="M835,191.46H754.2a3.29,3.29,0,0,1-3.3-3.29v-9a3.29,3.29,0,0,1,.54-1.81l50.79-77.2c5.34-8,9.36-14.36,12-18.91a77.57,77.57,0,0,0,6.48-15.15,61.4,61.4,0,0,0,2.67-18.53c0-9.87-2.19-17.61-6.5-23s-10.07-7.79-18-7.79c-11,0-18.21,2.94-22.19,9-4.22,6.44-6.43,16.06-6.57,28.6v2.89a3.29,3.29,0,0,1-3.29,3.3H755.1a3.29,3.29,0,0,1-3.29-3.3V53.63c0-17.87,3.75-31.38,11.16-40.16C770.51,4.53,782.45,0,798.44,0c14,0,24.95,4.45,32.42,13.24,7.33,8.62,11,20.77,11,36.1a66.8,66.8,0,0,1-6,28.25,243.79,243.79,0,0,1-17.29,30L774.1,174.72H835A3.29,3.29,0,0,1,838.3,178v10.16A3.29,3.29,0,0,1,835,191.46Zm-77.52-6.59h74.22V181.3H768a3.29,3.29,0,0,1-2.75-5.11L813.07,104a235.27,235.27,0,0,0,16.81-29.13,60.18,60.18,0,0,0,5.44-25.48c0-13.72-3.19-24.43-9.48-31.83S810.63,6.59,798.44,6.59c-14,0-24.2,3.74-30.44,11.13-6.38,7.56-9.61,19.64-9.61,35.91V54h5.16c.19-13.68,2.76-24.37,7.64-31.81,5.21-8,14.54-12,27.7-12,9.88,0,17.66,3.45,23.11,10.26,5.27,6.59,8,15.71,8,27.12a67.79,67.79,0,0,1-3,20.52,83.93,83.93,0,0,1-7.05,16.44c-2.68,4.68-6.79,11.16-12.19,19.27l-50.24,76.35Z"/></g><path class="cls-8" d="M835,191.46H754.2a3.29,3.29,0,0,1-3.3-3.29v-9a3.29,3.29,0,0,1,.54-1.81l50.79-77.2c5.34-8,9.36-14.36,12-18.91a77.57,77.57,0,0,0,6.48-15.15,61.4,61.4,0,0,0,2.67-18.53c0-9.87-2.19-17.61-6.5-23s-10.07-7.79-18-7.79c-11,0-18.21,2.94-22.19,9-4.22,6.44-6.43,16.06-6.57,28.6v2.89a3.29,3.29,0,0,1-3.29,3.3H755.1a3.29,3.29,0,0,1-3.29-3.3V53.63c0-17.87,3.75-31.38,11.16-40.16C770.51,4.53,782.45,0,798.44,0c14,0,24.95,4.45,32.42,13.24,7.33,8.62,11,20.77,11,36.1a66.8,66.8,0,0,1-6,28.25,243.79,243.79,0,0,1-17.29,30L774.1,174.72H835A3.29,3.29,0,0,1,838.3,178v10.16A3.29,3.29,0,0,1,835,191.46Zm-77.52-6.59h74.22V181.3H768a3.29,3.29,0,0,1-2.75-5.11L813.07,104a235.27,235.27,0,0,0,16.81-29.13,60.18,60.18,0,0,0,5.44-25.48c0-13.72-3.19-24.43-9.48-31.83S810.63,6.59,798.44,6.59c-14,0-24.2,3.74-30.44,11.13-6.38,7.56-9.61,19.64-9.61,35.91V54h5.16c.19-13.68,2.76-24.37,7.64-31.81,5.21-8,14.54-12,27.7-12,9.88,0,17.66,3.45,23.11,10.26,5.27,6.59,8,15.71,8,27.12a67.79,67.79,0,0,1-3,20.52,83.93,83.93,0,0,1-7.05,16.44c-2.68,4.68-6.79,11.16-12.19,19.27l-50.24,76.35Z"/><path class="cls-9" d="M754.2,179.14,805,101.94q8.13-12.19,12.08-19.07a80.85,80.85,0,0,0,6.77-15.81,64.12,64.12,0,0,0,2.83-19.52q0-16-7.23-25.06t-20.54-9Q780.83,13.45,774,24t-7.11,30.36v2.93H755.1V53.63q0-25.73,10.38-38t33-12.31q19.63,0,29.91,12.08t10.27,34a63.23,63.23,0,0,1-5.75,26.87,240.43,240.43,0,0,1-17,29.56L768,178h67v10.16H754.2Z"/><g id="Text"><path class="cls-10" d="M75.73,195.86,0,4.42H38.41L93.25,154.7,147.8,4.42h37.31l-76,191.44Z"/><path class="cls-10" d="M259.1,169.89q18.78,0,27.35-6.35t8.56-18a23.14,23.14,0,0,0-2.9-11.88,30.45,30.45,0,0,0-8.28-9,70.11,70.11,0,0,0-13.13-7.45Q263,113.81,253,110.5q-9.94-3.59-19.2-7.88A64.16,64.16,0,0,1,217.53,92,49,49,0,0,1,206.2,76.8q-4.27-8.85-4.28-21.27,0-26,18-40.75T268.77,0a115.89,115.89,0,0,1,31.91,4q13.94,4,22,8.7L311.86,40.88a83.21,83.21,0,0,0-20.57-8,96,96,0,0,0-23.07-2.76q-14.09,0-22,5.8t-7.88,16.3A21.5,21.5,0,0,0,241,63.12a26.84,26.84,0,0,0,7.46,8.15,64.58,64.58,0,0,0,11.32,6.63q6.49,3,14.23,5.8,13.53,5,24.17,10.09a68.44,68.44,0,0,1,18,12.15,47.74,47.74,0,0,1,11.18,16.57q3.87,9.54,3.87,23.07,0,26-18.37,40.19T259.1,200a142.43,142.43,0,0,1-21.68-1.52A139.16,139.16,0,0,1,220,194.75a117.72,117.72,0,0,1-13.12-4.56,80,80,0,0,1-8.84-4.28l10.22-28.45a119.09,119.09,0,0,0,20.17,8.29Q241.15,169.89,259.1,169.89Z"/><path class="cls-10" d="M431.21,89.23,477.07,4.42h38.67l-67.95,116.3v75.14H413V121.27L344.75,4.42h40.88Z"/><path class="cls-10" d="M587.9,169.89q18.78,0,27.35-6.35t8.56-18a23.24,23.24,0,0,0-2.9-11.88,30.49,30.49,0,0,0-8.29-9,69.69,69.69,0,0,0-13.12-7.45q-7.74-3.47-17.68-6.77-9.95-3.59-19.2-7.88A64.28,64.28,0,0,1,546.33,92,48.82,48.82,0,0,1,535,76.8q-4.29-8.85-4.28-21.27,0-26,17.95-40.75T597.57,0a115.77,115.77,0,0,1,31.9,4q13.95,4,22,8.7L640.66,40.88a83.13,83.13,0,0,0-20.58-8A96,96,0,0,0,597,30.11q-14.1,0-22,5.8t-7.87,16.3a21.49,21.49,0,0,0,2.62,10.91,27,27,0,0,0,7.46,8.15,65.06,65.06,0,0,0,11.33,6.63q6.48,3,14.23,5.8,13.53,5,24.17,10.09a68.38,68.38,0,0,1,18,12.15,47.63,47.63,0,0,1,11.19,16.57q3.87,9.54,3.87,23.07,0,26-18.37,40.19T587.9,200a142.66,142.66,0,0,1-21.69-1.52,138.59,138.59,0,0,1-17.4-3.73,116.3,116.3,0,0,1-13.12-4.56,79.1,79.1,0,0,1-8.84-4.28l10.22-28.45a118.39,118.39,0,0,0,20.17,8.29Q569.93,169.89,587.9,169.89Z"/></g></g></g></svg>